<?xml version="1.0" encoding="UTF-8" standalone="no"?>
<!DOCTYPE svg PUBLIC "-//W3C//DTD SVG 1.1//EN"
 "http://www.w3.org/Graphics/SVG/1.1/DTD/svg11.dtd">
<!-- Generated by graphviz version 2.40.1 (20161225.0304)
 -->
<!-- Title: %3 Pages: 1 -->
<svg
 viewBox="30.00 0.00 1590.00 680.00" xmlns="http://www.w3.org/2000/svg" xmlns:xlink="http://www.w3.org/1999/xlink">
<g id="graph0" class="graph" transform="scale(4.1667 4.1667) rotate(0) translate(4 160.5)">
<title>%3</title>
<polygon fill="#ffffff" stroke="transparent" points="-4,4 -4,-160.5 388,-160.5 388,4 -4,4"/>
<!-- table0 -->
<g id="node1" class="node">
<title>table0</title>
<polyline fill="none" stroke="#000000" points="8,-131 100,-131 "/>
<text text-anchor="start" x="51" y="-137.8" font-family="Times,Liberation Serif,serif" font-size="14.00" fill="#000000">s</text>
<polygon fill="none" stroke="#000000" points="8,-110 8,-131 60,-131 60,-110 8,-110"/>
<text text-anchor="start" x="21.5" y="-116.8" font-family="Times,Liberation Serif,serif" font-size="14.00" fill="#000000">nom</text>
<polygon fill="none" stroke="#000000" points="60,-110 60,-131 100,-131 100,-110 60,-110"/>
<text text-anchor="start" x="63" y="-116.8" font-family="Times,Liberation Serif,serif" font-size="14.00" fill="#000000">valeur</text>
<polygon fill="none" stroke="#000000" points="8,-89 8,-110 60,-110 60,-89 8,-89"/>
<text text-anchor="start" x="11" y="-95.8" font-family="Times,Liberation Serif,serif" font-size="14.00" fill="#000000">pointeur</text>
<polygon fill="none" stroke="#000000" points="60,-89 60,-110 100,-110 100,-89 60,-89"/>
</g>
<!-- table1 -->
<g id="node2" class="node">
<title>table1</title>
<polyline fill="none" stroke="#000000" points="152,-131 244,-131 "/>
<text text-anchor="start" x="191.5" y="-137.8" font-family="Times,Liberation Serif,serif" font-size="14.00" fill="#000000">s1</text>
<polygon fill="none" stroke="#000000" points="152,-110 152,-131 204,-131 204,-110 152,-110"/>
<text text-anchor="start" x="165.5" y="-116.8" font-family="Times,Liberation Serif,serif" font-size="14.00" fill="#000000">nom</text>
<polygon fill="none" stroke="#000000" points="204,-110 204,-131 244,-131 244,-110 204,-110"/>
<text text-anchor="start" x="207" y="-116.8" font-family="Times,Liberation Serif,serif" font-size="14.00" fill="#000000">valeur</text>
<polygon fill="none" stroke="#000000" points="152,-89 152,-110 204,-110 204,-89 152,-89"/>
<text text-anchor="start" x="155" y="-95.8" font-family="Times,Liberation Serif,serif" font-size="14.00" fill="#000000">pointeur</text>
<polygon fill="none" stroke="#000000" points="204,-89 204,-110 244,-110 244,-89 204,-89"/>
<polygon fill="none" stroke="#000000" points="152,-68 152,-89 204,-89 204,-68 152,-68"/>
<text text-anchor="start" x="164" y="-74.8" font-family="Times,Liberation Serif,serif" font-size="14.00" fill="#000000">taille</text>
<polygon fill="none" stroke="#000000" points="204,-68 204,-89 244,-89 244,-68 204,-68"/>
<text text-anchor="start" x="220.5" y="-74.8" font-family="Times,Liberation Serif,serif" font-size="14.00" fill="#000000">5</text>
<polygon fill="none" stroke="#000000" points="152,-47 152,-68 204,-68 204,-47 152,-47"/>
<text text-anchor="start" x="155.5" y="-53.8" font-family="Times,Liberation Serif,serif" font-size="14.00" fill="#000000">capacité</text>
<polygon fill="none" stroke="#000000" points="204,-47 204,-68 244,-68 244,-47 204,-47"/>
<text text-anchor="start" x="220.5" y="-53.8" font-family="Times,Liberation Serif,serif" font-size="14.00" fill="#000000">5</text>
</g>
<!-- table0&#45;&gt;table1 -->
<g id="edge2" class="edge">
<title>table0:c&#45;&gt;table1:borrowee</title>
<path fill="none" stroke="#000000" d="M80,-99C80,-99 112.0074,-99 141.6643,-99"/>
<polygon fill="#000000" stroke="#000000" points="142,-102.5001 152,-99 142,-95.5001 142,-102.5001"/>
</g>
<!-- table2 -->
<g id="node3" class="node">
<title>table2</title>
<polygon fill="none" stroke="#000000" points="296,-109 296,-130 336,-130 336,-109 296,-109"/>
<text text-anchor="start" x="299" y="-115.8" font-family="Times,Liberation Serif,serif" font-size="14.00" fill="#000000">indice</text>
<polygon fill="none" stroke="#000000" points="336,-109 336,-130 376,-130 376,-109 336,-109"/>
<text text-anchor="start" x="339" y="-115.8" font-family="Times,Liberation Serif,serif" font-size="14.00" fill="#000000">valeur</text>
<polygon fill="none" stroke="#000000" points="296,-88 296,-109 336,-109 336,-88 296,-88"/>
<text text-anchor="start" x="312.5" y="-94.8" font-family="Times,Liberation Serif,serif" font-size="14.00" fill="#000000">0</text>
<polygon fill="none" stroke="#000000" points="336,-88 336,-109 376,-109 376,-88 336,-88"/>
<text text-anchor="start" x="352.5" y="-94.8" font-family="Times,Liberation Serif,serif" font-size="14.00" fill="#000000">h</text>
<polygon fill="none" stroke="#000000" points="296,-67 296,-88 336,-88 336,-67 296,-67"/>
<text text-anchor="start" x="312.5" y="-73.8" font-family="Times,Liberation Serif,serif" font-size="14.00" fill="#000000">1</text>
<polygon fill="none" stroke="#000000" points="336,-67 336,-88 376,-88 376,-67 336,-67"/>
<text text-anchor="start" x="352.5" y="-73.8" font-family="Times,Liberation Serif,serif" font-size="14.00" fill="#000000">e</text>
<polygon fill="none" stroke="#000000" points="296,-46 296,-67 336,-67 336,-46 296,-46"/>
<text text-anchor="start" x="312.5" y="-52.8" font-family="Times,Liberation Serif,serif" font-size="14.00" fill="#000000">2</text>
<polygon fill="none" stroke="#000000" points="336,-46 336,-67 376,-67 376,-46 336,-46"/>
<text text-anchor="start" x="354" y="-52.8" font-family="Times,Liberation Serif,serif" font-size="14.00" fill="#000000">l</text>
<polygon fill="none" stroke="#000000" points="296,-25 296,-46 336,-46 336,-25 296,-25"/>
<text text-anchor="start" x="312.5" y="-31.8" font-family="Times,Liberation Serif,serif" font-size="14.00" fill="#000000">3</text>
<polygon fill="none" stroke="#000000" points="336,-25 336,-46 376,-46 376,-25 336,-25"/>
<text text-anchor="start" x="354" y="-31.8" font-family="Times,Liberation Serif,serif" font-size="14.00" fill="#000000">l</text>
<polygon fill="none" stroke="#000000" points="296,-4 296,-25 336,-25 336,-4 296,-4"/>
<text text-anchor="start" x="312.5" y="-10.8" font-family="Times,Liberation Serif,serif" font-size="14.00" fill="#000000">4</text>
<polygon fill="none" stroke="#000000" points="336,-4 336,-25 376,-25 376,-4 336,-4"/>
<text text-anchor="start" x="352.5" y="-10.8" font-family="Times,Liberation Serif,serif" font-size="14.00" fill="#000000">o</text>
</g>
<!-- table1&#45;&gt;table2 -->
<g id="edge1" class="edge">
<title>table1:c&#45;&gt;table2:pointee</title>
<path fill="none" stroke="#000000" d="M224,-99C224,-99 256.0074,-99 285.6643,-99"/>
<polygon fill="#000000" stroke="#000000" points="286,-102.5001 296,-99 286,-95.5001 286,-102.5001"/>
</g>
</g>
</svg>
