<?xml version="1.0" encoding="UTF-8" standalone="no"?>
<!DOCTYPE svg PUBLIC "-//W3C//DTD SVG 1.1//EN"
 "http://www.w3.org/Graphics/SVG/1.1/DTD/svg11.dtd">
<!-- Generated by graphviz version 2.40.1 (20161225.0304)
 -->
<!-- Title: %3 Pages: 1 -->
<svg
 viewBox="0.00 0.00 1000.00 680.00" xmlns="http://www.w3.org/2000/svg" xmlns:xlink="http://www.w3.org/1999/xlink">
<g id="graph0" class="graph" transform="scale(4.1667 4.1667) rotate(0) translate(4 160.5)">
<title>%3</title>
<polygon fill="#ffffff" stroke="transparent" points="-4,4 -4,-160.5 244,-160.5 244,4 -4,4"/>
<!-- table0 -->
<g id="node1" class="node">
<title>table0</title>
<polyline fill="none" stroke="#000000" points="8,-131 100,-131 "/>
<text text-anchor="start" x="47.5" y="-137.8" font-family="Times,Liberation Serif,serif" font-size="14.00" fill="#000000">s1</text>
<polygon fill="none" stroke="#000000" points="8,-110 8,-131 60,-131 60,-110 8,-110"/>
<text text-anchor="start" x="21.5" y="-116.8" font-family="Times,Liberation Serif,serif" font-size="14.00" fill="#000000">nom</text>
<polygon fill="none" stroke="#000000" points="60,-110 60,-131 100,-131 100,-110 60,-110"/>
<text text-anchor="start" x="63" y="-116.8" font-family="Times,Liberation Serif,serif" font-size="14.00" fill="#000000">valeur</text>
<polygon fill="none" stroke="#000000" points="8,-89 8,-110 60,-110 60,-89 8,-89"/>
<text text-anchor="start" x="11" y="-95.8" font-family="Times,Liberation Serif,serif" font-size="14.00" fill="#000000">pointeur</text>
<polygon fill="none" stroke="#000000" points="60,-89 60,-110 100,-110 100,-89 60,-89"/>
<polygon fill="none" stroke="#000000" points="8,-68 8,-89 60,-89 60,-68 8,-68"/>
<text text-anchor="start" x="20" y="-74.8" font-family="Times,Liberation Serif,serif" font-size="14.00" fill="#000000">taille</text>
<polygon fill="none" stroke="#000000" points="60,-68 60,-89 100,-89 100,-68 60,-68"/>
<text text-anchor="start" x="76.5" y="-74.8" font-family="Times,Liberation Serif,serif" font-size="14.00" fill="#000000">5</text>
<polygon fill="none" stroke="#000000" points="8,-47 8,-68 60,-68 60,-47 8,-47"/>
<text text-anchor="start" x="11.5" y="-53.8" font-family="Times,Liberation Serif,serif" font-size="14.00" fill="#000000">capacité</text>
<polygon fill="none" stroke="#000000" points="60,-47 60,-68 100,-68 100,-47 60,-47"/>
<text text-anchor="start" x="76.5" y="-53.8" font-family="Times,Liberation Serif,serif" font-size="14.00" fill="#000000">5</text>
</g>
<!-- table1 -->
<g id="node2" class="node">
<title>table1</title>
<polygon fill="none" stroke="#000000" points="152,-109 152,-130 192,-130 192,-109 152,-109"/>
<text text-anchor="start" x="155" y="-115.8" font-family="Times,Liberation Serif,serif" font-size="14.00" fill="#000000">indice</text>
<polygon fill="none" stroke="#000000" points="192,-109 192,-130 232,-130 232,-109 192,-109"/>
<text text-anchor="start" x="195" y="-115.8" font-family="Times,Liberation Serif,serif" font-size="14.00" fill="#000000">valeur</text>
<polygon fill="none" stroke="#000000" points="152,-88 152,-109 192,-109 192,-88 152,-88"/>
<text text-anchor="start" x="168.5" y="-94.8" font-family="Times,Liberation Serif,serif" font-size="14.00" fill="#000000">0</text>
<polygon fill="none" stroke="#000000" points="192,-88 192,-109 232,-109 232,-88 192,-88"/>
<text text-anchor="start" x="208.5" y="-94.8" font-family="Times,Liberation Serif,serif" font-size="14.00" fill="#000000">h</text>
<polygon fill="none" stroke="#000000" points="152,-67 152,-88 192,-88 192,-67 152,-67"/>
<text text-anchor="start" x="168.5" y="-73.8" font-family="Times,Liberation Serif,serif" font-size="14.00" fill="#000000">1</text>
<polygon fill="none" stroke="#000000" points="192,-67 192,-88 232,-88 232,-67 192,-67"/>
<text text-anchor="start" x="208.5" y="-73.8" font-family="Times,Liberation Serif,serif" font-size="14.00" fill="#000000">e</text>
<polygon fill="none" stroke="#000000" points="152,-46 152,-67 192,-67 192,-46 152,-46"/>
<text text-anchor="start" x="168.5" y="-52.8" font-family="Times,Liberation Serif,serif" font-size="14.00" fill="#000000">2</text>
<polygon fill="none" stroke="#000000" points="192,-46 192,-67 232,-67 232,-46 192,-46"/>
<text text-anchor="start" x="210" y="-52.8" font-family="Times,Liberation Serif,serif" font-size="14.00" fill="#000000">l</text>
<polygon fill="none" stroke="#000000" points="152,-25 152,-46 192,-46 192,-25 152,-25"/>
<text text-anchor="start" x="168.5" y="-31.8" font-family="Times,Liberation Serif,serif" font-size="14.00" fill="#000000">3</text>
<polygon fill="none" stroke="#000000" points="192,-25 192,-46 232,-46 232,-25 192,-25"/>
<text text-anchor="start" x="210" y="-31.8" font-family="Times,Liberation Serif,serif" font-size="14.00" fill="#000000">l</text>
<polygon fill="none" stroke="#000000" points="152,-4 152,-25 192,-25 192,-4 152,-4"/>
<text text-anchor="start" x="168.5" y="-10.8" font-family="Times,Liberation Serif,serif" font-size="14.00" fill="#000000">4</text>
<polygon fill="none" stroke="#000000" points="192,-4 192,-25 232,-25 232,-4 192,-4"/>
<text text-anchor="start" x="208.5" y="-10.8" font-family="Times,Liberation Serif,serif" font-size="14.00" fill="#000000">o</text>
</g>
<!-- table0&#45;&gt;table1 -->
<g id="edge1" class="edge">
<title>table0:c&#45;&gt;table1:pointee</title>
<path fill="none" stroke="#000000" d="M80,-99C80,-99 112.0074,-99 141.6643,-99"/>
<polygon fill="#000000" stroke="#000000" points="142,-102.5001 152,-99 142,-95.5001 142,-102.5001"/>
</g>
</g>
</svg>
