<?xml version="1.0" encoding="UTF-8" standalone="no"?>
<!DOCTYPE svg PUBLIC "-//W3C//DTD SVG 1.1//EN"
 "http://www.w3.org/Graphics/SVG/1.1/DTD/svg11.dtd">
<!-- Generated by graphviz version 2.40.1 (20161225.0304)
 -->
<!-- Title: %3 Pages: 1 -->
<svg
 viewBox="0.00 0.00 1000.00 1200.00" xmlns="http://www.w3.org/2000/svg" xmlns:xlink="http://www.w3.org/1999/xlink">
<g id="graph0" class="graph" transform="scale(4.1667 4.1667) rotate(0) translate(4 288.5)">
<title>%3</title>
<polygon fill="#ffffff" stroke="transparent" points="-4,4 -4,-288.5 244,-288.5 244,4 -4,4"/>
<!-- table0 -->
<g id="node1" class="node">
<title>table0</title>
<polyline fill="none" stroke="#000000" points="8,-128 100,-128 "/>
<text text-anchor="start" x="38" y="-134.8" font-family="Times,Liberation Serif,serif" font-size="14.00" fill="#000000">world</text>
<polygon fill="none" stroke="#000000" points="8,-107 8,-128 60,-128 60,-107 8,-107"/>
<text text-anchor="start" x="21.5" y="-113.8" font-family="Times,Liberation Serif,serif" font-size="14.00" fill="#000000">nom</text>
<polygon fill="none" stroke="#000000" points="60,-107 60,-128 100,-128 100,-107 60,-107"/>
<text text-anchor="start" x="63" y="-113.8" font-family="Times,Liberation Serif,serif" font-size="14.00" fill="#000000">valeur</text>
<polygon fill="none" stroke="#000000" points="8,-86 8,-107 60,-107 60,-86 8,-86"/>
<text text-anchor="start" x="11" y="-92.8" font-family="Times,Liberation Serif,serif" font-size="14.00" fill="#000000">pointeur</text>
<polygon fill="none" stroke="#000000" points="60,-86 60,-107 100,-107 100,-86 60,-86"/>
<polygon fill="none" stroke="#000000" points="8,-65 8,-86 60,-86 60,-65 8,-65"/>
<text text-anchor="start" x="20" y="-71.8" font-family="Times,Liberation Serif,serif" font-size="14.00" fill="#000000">taille</text>
<polygon fill="none" stroke="#000000" points="60,-65 60,-86 100,-86 100,-65 60,-65"/>
<text text-anchor="start" x="76.5" y="-71.8" font-family="Times,Liberation Serif,serif" font-size="14.00" fill="#000000">5</text>
</g>
<!-- table4 -->
<g id="node3" class="node">
<title>table4</title>
<polygon fill="none" stroke="#000000" points="152,-235 152,-256 192,-256 192,-235 152,-235"/>
<text text-anchor="start" x="155" y="-241.8" font-family="Times,Liberation Serif,serif" font-size="14.00" fill="#000000">indice</text>
<polygon fill="none" stroke="#000000" points="192,-235 192,-256 232,-256 232,-235 192,-235"/>
<text text-anchor="start" x="195" y="-241.8" font-family="Times,Liberation Serif,serif" font-size="14.00" fill="#000000">valeur</text>
<polygon fill="none" stroke="#000000" points="152,-214 152,-235 192,-235 192,-214 152,-214"/>
<text text-anchor="start" x="168.5" y="-220.8" font-family="Times,Liberation Serif,serif" font-size="14.00" fill="#000000">0</text>
<polygon fill="none" stroke="#000000" points="192,-214 192,-235 232,-235 232,-214 192,-214"/>
<text text-anchor="start" x="208.5" y="-220.8" font-family="Times,Liberation Serif,serif" font-size="14.00" fill="#000000">h</text>
<polygon fill="none" stroke="#000000" points="152,-193 152,-214 192,-214 192,-193 152,-193"/>
<text text-anchor="start" x="168.5" y="-199.8" font-family="Times,Liberation Serif,serif" font-size="14.00" fill="#000000">1</text>
<polygon fill="none" stroke="#000000" points="192,-193 192,-214 232,-214 232,-193 192,-193"/>
<text text-anchor="start" x="208.5" y="-199.8" font-family="Times,Liberation Serif,serif" font-size="14.00" fill="#000000">e</text>
<polygon fill="none" stroke="#000000" points="152,-172 152,-193 192,-193 192,-172 152,-172"/>
<text text-anchor="start" x="168.5" y="-178.8" font-family="Times,Liberation Serif,serif" font-size="14.00" fill="#000000">2</text>
<polygon fill="none" stroke="#000000" points="192,-172 192,-193 232,-193 232,-172 192,-172"/>
<text text-anchor="start" x="210" y="-178.8" font-family="Times,Liberation Serif,serif" font-size="14.00" fill="#000000">l</text>
<polygon fill="none" stroke="#000000" points="152,-151 152,-172 192,-172 192,-151 152,-151"/>
<text text-anchor="start" x="168.5" y="-157.8" font-family="Times,Liberation Serif,serif" font-size="14.00" fill="#000000">3</text>
<polygon fill="none" stroke="#000000" points="192,-151 192,-172 232,-172 232,-151 192,-151"/>
<text text-anchor="start" x="210" y="-157.8" font-family="Times,Liberation Serif,serif" font-size="14.00" fill="#000000">l</text>
<polygon fill="none" stroke="#000000" points="152,-130 152,-151 192,-151 192,-130 152,-130"/>
<text text-anchor="start" x="168.5" y="-136.8" font-family="Times,Liberation Serif,serif" font-size="14.00" fill="#000000">4</text>
<polygon fill="none" stroke="#000000" points="192,-130 192,-151 232,-151 232,-130 192,-130"/>
<text text-anchor="start" x="208.5" y="-136.8" font-family="Times,Liberation Serif,serif" font-size="14.00" fill="#000000">o</text>
<polygon fill="none" stroke="#000000" points="152,-109 152,-130 192,-130 192,-109 152,-109"/>
<text text-anchor="start" x="168.5" y="-115.8" font-family="Times,Liberation Serif,serif" font-size="14.00" fill="#000000">5</text>
<polygon fill="none" stroke="#000000" points="192,-109 192,-130 232,-130 232,-109 192,-109"/>
<text text-anchor="start" x="210" y="-115.8" font-family="Times,Liberation Serif,serif" font-size="14.00" fill="#000000"> </text>
<polygon fill="none" stroke="#000000" points="152,-88 152,-109 192,-109 192,-88 152,-88"/>
<text text-anchor="start" x="168.5" y="-94.8" font-family="Times,Liberation Serif,serif" font-size="14.00" fill="#000000">6</text>
<polygon fill="none" stroke="#000000" points="192,-88 192,-109 232,-109 232,-88 192,-88"/>
<text text-anchor="start" x="207" y="-94.8" font-family="Times,Liberation Serif,serif" font-size="14.00" fill="#000000">w</text>
<polygon fill="none" stroke="#000000" points="152,-67 152,-88 192,-88 192,-67 152,-67"/>
<text text-anchor="start" x="168.5" y="-73.8" font-family="Times,Liberation Serif,serif" font-size="14.00" fill="#000000">7</text>
<polygon fill="none" stroke="#000000" points="192,-67 192,-88 232,-88 232,-67 192,-67"/>
<text text-anchor="start" x="208.5" y="-73.8" font-family="Times,Liberation Serif,serif" font-size="14.00" fill="#000000">o</text>
<polygon fill="none" stroke="#000000" points="152,-46 152,-67 192,-67 192,-46 152,-46"/>
<text text-anchor="start" x="168.5" y="-52.8" font-family="Times,Liberation Serif,serif" font-size="14.00" fill="#000000">8</text>
<polygon fill="none" stroke="#000000" points="192,-46 192,-67 232,-67 232,-46 192,-46"/>
<text text-anchor="start" x="209.5" y="-52.8" font-family="Times,Liberation Serif,serif" font-size="14.00" fill="#000000">r</text>
<polygon fill="none" stroke="#000000" points="152,-25 152,-46 192,-46 192,-25 152,-25"/>
<text text-anchor="start" x="168.5" y="-31.8" font-family="Times,Liberation Serif,serif" font-size="14.00" fill="#000000">9</text>
<polygon fill="none" stroke="#000000" points="192,-25 192,-46 232,-46 232,-25 192,-25"/>
<text text-anchor="start" x="210" y="-31.8" font-family="Times,Liberation Serif,serif" font-size="14.00" fill="#000000">l</text>
<polygon fill="none" stroke="#000000" points="152,-4 152,-25 192,-25 192,-4 152,-4"/>
<text text-anchor="start" x="165" y="-10.8" font-family="Times,Liberation Serif,serif" font-size="14.00" fill="#000000">10</text>
<polygon fill="none" stroke="#000000" points="192,-4 192,-25 232,-25 232,-4 192,-4"/>
<text text-anchor="start" x="208.5" y="-10.8" font-family="Times,Liberation Serif,serif" font-size="14.00" fill="#000000">d</text>
</g>
<!-- table0&#45;&gt;table4 -->
<g id="edge1" class="edge">
<title>table0:c&#45;&gt;table4:pointee2</title>
<path fill="none" stroke="#000000" d="M80,-96C80,-96 111.9976,-97.6004 141.6612,-97.938"/>
<polygon fill="#000000" stroke="#000000" points="141.9791,-101.4398 152,-98 142.0212,-94.44 141.9791,-101.4398"/>
</g>
<!-- table3 -->
<g id="node2" class="node">
<title>table3</title>
<polyline fill="none" stroke="#000000" points="8,-259 100,-259 "/>
<text text-anchor="start" x="51" y="-265.8" font-family="Times,Liberation Serif,serif" font-size="14.00" fill="#000000">s</text>
<polygon fill="none" stroke="#000000" points="8,-238 8,-259 60,-259 60,-238 8,-238"/>
<text text-anchor="start" x="21.5" y="-244.8" font-family="Times,Liberation Serif,serif" font-size="14.00" fill="#000000">nom</text>
<polygon fill="none" stroke="#000000" points="60,-238 60,-259 100,-259 100,-238 60,-238"/>
<text text-anchor="start" x="63" y="-244.8" font-family="Times,Liberation Serif,serif" font-size="14.00" fill="#000000">valeur</text>
<polygon fill="none" stroke="#000000" points="8,-217 8,-238 60,-238 60,-217 8,-217"/>
<text text-anchor="start" x="11" y="-223.8" font-family="Times,Liberation Serif,serif" font-size="14.00" fill="#000000">pointeur</text>
<polygon fill="none" stroke="#000000" points="60,-217 60,-238 100,-238 100,-217 60,-217"/>
<polygon fill="none" stroke="#000000" points="8,-196 8,-217 60,-217 60,-196 8,-196"/>
<text text-anchor="start" x="20" y="-202.8" font-family="Times,Liberation Serif,serif" font-size="14.00" fill="#000000">taille</text>
<polygon fill="none" stroke="#000000" points="60,-196 60,-217 100,-217 100,-196 60,-196"/>
<text text-anchor="start" x="73" y="-202.8" font-family="Times,Liberation Serif,serif" font-size="14.00" fill="#000000">11</text>
<polygon fill="none" stroke="#000000" points="8,-175 8,-196 60,-196 60,-175 8,-175"/>
<text text-anchor="start" x="11.5" y="-181.8" font-family="Times,Liberation Serif,serif" font-size="14.00" fill="#000000">capacité</text>
<polygon fill="none" stroke="#000000" points="60,-175 60,-196 100,-196 100,-175 60,-175"/>
<text text-anchor="start" x="73" y="-181.8" font-family="Times,Liberation Serif,serif" font-size="14.00" fill="#000000">11</text>
</g>
<!-- table3&#45;&gt;table4 -->
<g id="edge2" class="edge">
<title>table3:c&#45;&gt;table4:pointee</title>
<path fill="none" stroke="#000000" d="M80,-227C80,-227 111.9976,-225.3996 141.6612,-225.062"/>
<polygon fill="#000000" stroke="#000000" points="142.0212,-228.56 152,-225 141.9791,-221.5602 142.0212,-228.56"/>
</g>
</g>
</svg>
