<?xml version="1.0" encoding="UTF-8" standalone="no"?>
<!DOCTYPE svg PUBLIC "-//W3C//DTD SVG 1.1//EN"
 "http://www.w3.org/Graphics/SVG/1.1/DTD/svg11.dtd">
<!-- Generated by graphviz version 2.40.1 (20161225.0304)
 -->
<!-- Title: %3 Pages: 1 -->
<svg
 viewBox="0.00 0.00 1000.00 1050.00" xmlns="http://www.w3.org/2000/svg" xmlns:xlink="http://www.w3.org/1999/xlink">
<g id="graph0" class="graph" transform="scale(4.1667 4.1667) rotate(0) translate(4 248)">
<title>%3</title>
<polygon fill="#ffffff" stroke="transparent" points="-4,4 -4,-248 244,-248 244,4 -4,4"/>
<!-- table0 -->
<g id="node1" class="node">
<title>table0</title>
<polygon fill="#c0c0c0" stroke="transparent" points="8,-135 8,-240 100,-240 100,-135 8,-135"/>
<polyline fill="none" stroke="#000000" points="8,-218.5 100,-218.5 "/>
<text text-anchor="start" x="47.5" y="-225.3" font-family="Times,Liberation Serif,serif" font-size="14.00" fill="#000000">s1</text>
<polygon fill="none" stroke="#000000" points="8,-197.5 8,-218.5 60,-218.5 60,-197.5 8,-197.5"/>
<text text-anchor="start" x="21.5" y="-204.3" font-family="Times,Liberation Serif,serif" font-size="14.00" fill="#000000">nom</text>
<polygon fill="none" stroke="#000000" points="60,-197.5 60,-218.5 100,-218.5 100,-197.5 60,-197.5"/>
<text text-anchor="start" x="63" y="-204.3" font-family="Times,Liberation Serif,serif" font-size="14.00" fill="#000000">valeur</text>
<polygon fill="none" stroke="#000000" points="8,-176.5 8,-197.5 60,-197.5 60,-176.5 8,-176.5"/>
<text text-anchor="start" x="11" y="-183.3" font-family="Times,Liberation Serif,serif" font-size="14.00" fill="#000000">pointeur</text>
<polygon fill="none" stroke="#000000" points="60,-176.5 60,-197.5 100,-197.5 100,-176.5 60,-176.5"/>
<polygon fill="none" stroke="#000000" points="8,-155.5 8,-176.5 60,-176.5 60,-155.5 8,-155.5"/>
<text text-anchor="start" x="20" y="-162.3" font-family="Times,Liberation Serif,serif" font-size="14.00" fill="#000000">taille</text>
<polygon fill="none" stroke="#000000" points="60,-155.5 60,-176.5 100,-176.5 100,-155.5 60,-155.5"/>
<text text-anchor="start" x="76.5" y="-162.3" font-family="Times,Liberation Serif,serif" font-size="14.00" fill="#000000">5</text>
<polygon fill="none" stroke="#000000" points="8,-134.5 8,-155.5 60,-155.5 60,-134.5 8,-134.5"/>
<text text-anchor="start" x="11.5" y="-141.3" font-family="Times,Liberation Serif,serif" font-size="14.00" fill="#000000">capacité</text>
<polygon fill="none" stroke="#000000" points="60,-134.5 60,-155.5 100,-155.5 100,-134.5 60,-134.5"/>
<text text-anchor="start" x="76.5" y="-141.3" font-family="Times,Liberation Serif,serif" font-size="14.00" fill="#000000">5</text>
</g>
<!-- table1 -->
<g id="node3" class="node">
<title>table1</title>
<polygon fill="none" stroke="#000000" points="152,-130.5 152,-151.5 192,-151.5 192,-130.5 152,-130.5"/>
<text text-anchor="start" x="155" y="-137.3" font-family="Times,Liberation Serif,serif" font-size="14.00" fill="#000000">indice</text>
<polygon fill="none" stroke="#000000" points="192,-130.5 192,-151.5 232,-151.5 232,-130.5 192,-130.5"/>
<text text-anchor="start" x="195" y="-137.3" font-family="Times,Liberation Serif,serif" font-size="14.00" fill="#000000">valeur</text>
<polygon fill="none" stroke="#000000" points="152,-109.5 152,-130.5 192,-130.5 192,-109.5 152,-109.5"/>
<text text-anchor="start" x="168.5" y="-116.3" font-family="Times,Liberation Serif,serif" font-size="14.00" fill="#000000">0</text>
<polygon fill="none" stroke="#000000" points="192,-109.5 192,-130.5 232,-130.5 232,-109.5 192,-109.5"/>
<text text-anchor="start" x="208.5" y="-116.3" font-family="Times,Liberation Serif,serif" font-size="14.00" fill="#000000">h</text>
<polygon fill="none" stroke="#000000" points="152,-88.5 152,-109.5 192,-109.5 192,-88.5 152,-88.5"/>
<text text-anchor="start" x="168.5" y="-95.3" font-family="Times,Liberation Serif,serif" font-size="14.00" fill="#000000">1</text>
<polygon fill="none" stroke="#000000" points="192,-88.5 192,-109.5 232,-109.5 232,-88.5 192,-88.5"/>
<text text-anchor="start" x="208.5" y="-95.3" font-family="Times,Liberation Serif,serif" font-size="14.00" fill="#000000">e</text>
<polygon fill="none" stroke="#000000" points="152,-67.5 152,-88.5 192,-88.5 192,-67.5 152,-67.5"/>
<text text-anchor="start" x="168.5" y="-74.3" font-family="Times,Liberation Serif,serif" font-size="14.00" fill="#000000">2</text>
<polygon fill="none" stroke="#000000" points="192,-67.5 192,-88.5 232,-88.5 232,-67.5 192,-67.5"/>
<text text-anchor="start" x="210" y="-74.3" font-family="Times,Liberation Serif,serif" font-size="14.00" fill="#000000">l</text>
<polygon fill="none" stroke="#000000" points="152,-46.5 152,-67.5 192,-67.5 192,-46.5 152,-46.5"/>
<text text-anchor="start" x="168.5" y="-53.3" font-family="Times,Liberation Serif,serif" font-size="14.00" fill="#000000">3</text>
<polygon fill="none" stroke="#000000" points="192,-46.5 192,-67.5 232,-67.5 232,-46.5 192,-46.5"/>
<text text-anchor="start" x="210" y="-53.3" font-family="Times,Liberation Serif,serif" font-size="14.00" fill="#000000">l</text>
<polygon fill="none" stroke="#000000" points="152,-25.5 152,-46.5 192,-46.5 192,-25.5 152,-25.5"/>
<text text-anchor="start" x="168.5" y="-32.3" font-family="Times,Liberation Serif,serif" font-size="14.00" fill="#000000">4</text>
<polygon fill="none" stroke="#000000" points="192,-25.5 192,-46.5 232,-46.5 232,-25.5 192,-25.5"/>
<text text-anchor="start" x="208.5" y="-32.3" font-family="Times,Liberation Serif,serif" font-size="14.00" fill="#000000">o</text>
</g>
<!-- table0&#45;&gt;table1 -->
<g id="edge1" class="edge">
<title>table0:c&#45;&gt;table1:pointee</title>
<path fill="none" stroke="#000000" d="M80,-186.5C80,-186.5 104.0917,-130.884 141.6238,-121.7595"/>
<polygon fill="#000000" stroke="#000000" points="142.4946,-125.1796 152,-120.5 141.6511,-118.2306 142.4946,-125.1796"/>
</g>
<!-- table3 -->
<g id="node2" class="node">
<title>table3</title>
<polyline fill="none" stroke="#000000" points="8,-87.5 100,-87.5 "/>
<text text-anchor="start" x="47.5" y="-94.3" font-family="Times,Liberation Serif,serif" font-size="14.00" fill="#000000">s2</text>
<polygon fill="none" stroke="#000000" points="8,-66.5 8,-87.5 60,-87.5 60,-66.5 8,-66.5"/>
<text text-anchor="start" x="21.5" y="-73.3" font-family="Times,Liberation Serif,serif" font-size="14.00" fill="#000000">nom</text>
<polygon fill="none" stroke="#000000" points="60,-66.5 60,-87.5 100,-87.5 100,-66.5 60,-66.5"/>
<text text-anchor="start" x="63" y="-73.3" font-family="Times,Liberation Serif,serif" font-size="14.00" fill="#000000">valeur</text>
<polygon fill="none" stroke="#000000" points="8,-45.5 8,-66.5 60,-66.5 60,-45.5 8,-45.5"/>
<text text-anchor="start" x="11" y="-52.3" font-family="Times,Liberation Serif,serif" font-size="14.00" fill="#000000">pointeur</text>
<polygon fill="none" stroke="#000000" points="60,-45.5 60,-66.5 100,-66.5 100,-45.5 60,-45.5"/>
<polygon fill="none" stroke="#000000" points="8,-24.5 8,-45.5 60,-45.5 60,-24.5 8,-24.5"/>
<text text-anchor="start" x="20" y="-31.3" font-family="Times,Liberation Serif,serif" font-size="14.00" fill="#000000">taille</text>
<polygon fill="none" stroke="#000000" points="60,-24.5 60,-45.5 100,-45.5 100,-24.5 60,-24.5"/>
<text text-anchor="start" x="76.5" y="-31.3" font-family="Times,Liberation Serif,serif" font-size="14.00" fill="#000000">5</text>
<polygon fill="none" stroke="#000000" points="8,-3.5 8,-24.5 60,-24.5 60,-3.5 8,-3.5"/>
<text text-anchor="start" x="11.5" y="-10.3" font-family="Times,Liberation Serif,serif" font-size="14.00" fill="#000000">capacité</text>
<polygon fill="none" stroke="#000000" points="60,-3.5 60,-24.5 100,-24.5 100,-3.5 60,-3.5"/>
<text text-anchor="start" x="76.5" y="-10.3" font-family="Times,Liberation Serif,serif" font-size="14.00" fill="#000000">5</text>
</g>
<!-- table3&#45;&gt;table1 -->
<g id="edge2" class="edge">
<title>table3:c&#45;&gt;table1:pointee</title>
<path fill="none" stroke="#000000" d="M80,-55.5C80,-55.5 104.3437,-110.2733 141.6858,-119.2596"/>
<polygon fill="#000000" stroke="#000000" points="141.6536,-122.7808 152,-120.5 142.4895,-115.8309 141.6536,-122.7808"/>
</g>
</g>
</svg>
